:version 1.10
:name ASF
:units
  mass 1
  length 1
  angle deg
:documentation
  ASF file generated by Kaydara
:root
  axis xyz
  order  tx ty tz rx ry rz
  position 0 0 0
  orientation 0 0 0
:bonedata
  begin
    id 1
    name RightUpLegDummy
    direction -0.65628 -0.754516 0.00165102
    length 4.76918
    axis 0 0 0 xyz
  end
  begin
    id 2
    name RightUpLeg
    direction -0.145584 -0.923362 0.355256
    length 17.9961
    axis -24.7611 -13.1006 1.78531 xyz
    dof rx ry rz
  end
  begin
    id 3
    name RightLeg
    direction 0.263379 0.172355 -0.949171
    length 13.3386
    axis 89.6202 -21.1929 12.3855 xyz
    dof rx ry rz
  end
  begin
    id 4
    name RightFoot
    direction 0.224283 -0.968777 -0.105675
    length 5.86697
    axis 56.995 -39.6905 17.3365 xyz
    dof rx ry rz
  end
  begin
    id 5
    name RightToes
    direction -0.0806345 -0.9037 0.420506
    length 4.75197
    axis 146.825 -39.7828 17.6019 xyz
    dof rx ry rz
  end
  begin
    id 6
    name SpineDummy
    direction -3.39852e-014 1 9.33296e-014
    length 8.13779
    axis 0 0 0 xyz
  end
  begin
    id 7
    name Spine
    direction -0.156609 0.733703 0.661176
    length 7.14978
    axis 41.2365 5.68757 17.0844 xyz
    dof rx ry rz
  end
  begin
    id 8
    name Spine1
    direction 0 0 0
    length 0
    axis 42.8809 47.8308 -3.36039 xyz
    dof rx ry rz
  end
  begin
    id 9
    name HEadDummy
    direction 0.546431 0.701947 0.456819
    length 3.55512
    axis 42.8809 47.8308 -3.36039 xyz
  end
  begin
    id 10
    name HEad
    direction 0.23444 0.828559 0.508457
    length 7.35827
    axis 51.1864 49.2662 27.4903 xyz
    dof rx ry rz
  end
  begin
    id 11
    name LeftShoulder1Dummy
    direction 0.431183 0.475873 -0.766568
    length 2.49352
    axis 42.8809 47.8308 -3.36039 xyz
  end
  begin
    id 12
    name LeftShoulder1
    direction 0.268187 -0.383402 -0.883786
    length 4.48604
    axis -119.517 0.106469 35.1736 xyz
    dof rx ry rz
  end
  begin
    id 13
    name LeftArm
    direction 0.380567 -0.703221 -0.600541
    length 10.1142
    axis -5.41825 36.2925 7.8293 xyz
    dof rx ry rz
  end
  begin
    id 14
    name LeftForeArm
    direction 0.541071 -0.732356 -0.413396
    length 9.39839
    axis 4.65387 33.7604 7.81644 xyz
    dof rx ry rz
  end
  begin
    id 15
    name LeftHand
    direction 0.847511 -0.389379 -0.360707
    length 3.66142
    axis 7.65593 21.1436 -24.6758 xyz
    dof rx ry rz
  end
  begin
    id 16
    name RightShoulderDummy
    direction -0.692546 0.541855 0.476208
    length 2.49352
    axis 42.8809 47.8308 -3.36039 xyz
  end
  begin
    id 17
    name RightShoulder
    direction -0.870808 -0.316653 0.376065
    length 4.48602
    axis 141.571 51.133 -100.254 xyz
    dof rx ry rz
  end
  begin
    id 18
    name RightArm
    direction 0.366897 -0.87275 0.322015
    length 10.1142
    axis 92.3258 71.2036 138.917 xyz
    dof rx ry rz
  end
  begin
    id 19
    name RightForeArm
    direction 0.702487 -0.694568 0.155197
    length 9.39835
    axis 153.863 41.5092 -176.604 xyz
    dof rx ry rz
  end
  begin
    id 20
    name RightHand
    direction 0.79502 -0.601276 0.0800636
    length 3.66142
    axis 154.247 4.59222 142.9 xyz
    dof rx ry rz
  end
  begin
    id 21
    name LeftUpLegDummy
    direction 0.65628 -0.754516 0.00165102
    length 4.76919
    axis 0 0 0 xyz
  end
  begin
    id 22
    name LeftUpLeg
    direction -0.1277 -0.689368 0.713067
    length 17.9961
    axis -48.3385 -17.8675 0.791927 xyz
    dof rx ry rz
  end
  begin
    id 23
    name LeftLeg
    direction 0.109849 -0.991246 -0.0732378
    length 13.3386
    axis -2.05791 -7.30784 1.72042 xyz
    dof rx ry rz
  end
  begin
    id 24
    name LeftFoot
    direction 0.0448355 -0.272614 0.961078
    length 5.86697
    axis -18.7733 -7.89606 10.2113 xyz
    dof rx ry rz
  end
  begin
    id 25
    name LeftToes
    direction -0.18506 0.293668 0.937823
    length 4.75197
    axis 71.2267 -7.89606 10.2113 xyz
    dof rx ry rz
  end
:hierarchy
  begin
    root RightUpLegDummy SpineDummy LeftUpLegDummy
    RightUpLegDummy RightUpLeg
    RightUpLeg RightLeg
    RightLeg RightFoot
    RightFoot RightToes
    SpineDummy Spine
    Spine Spine1
    Spine1 HEadDummy LeftShoulder1Dummy RightShoulderDummy
    HEadDummy HEad
    LeftShoulder1Dummy LeftShoulder1
    LeftShoulder1 LeftArm
    LeftArm LeftForeArm
    LeftForeArm LeftHand
    RightShoulderDummy RightShoulder
    RightShoulder RightArm
    RightArm RightForeArm
    RightForeArm RightHand
    LeftUpLegDummy LeftUpLeg
    LeftUpLeg LeftLeg
    LeftLeg LeftFoot
    LeftFoot LeftToes
  end

:SAMPLES-PER-SECOND 30
:FULLY-SPECIFIED
:DEGREES
509
root  -20.8681 31.4689 -0.921725 45.2893 84.335 15.5986
RightUpLeg  -55.8701 32.465 -36.0067
RightLeg  -60.8472 -6.98275 -11.4458
RightFoot  7.67148 -2.79626 1.36405
RightToes  -1.27222e-014 -6.36111e-015 6.36111e-015
Spine  8.75099 -17.3781 -0.201419
Spine1  -5.35785 -16.7762 47.4916
HEad  4.55416 -21.9743 -25.4462
LeftShoulder1  6.36111e-015 -1.33558e-015 6.49777e-015
LeftArm  -22.1367 -76.4654 2.34559
LeftForeArm  -17.4889 -38.0475 7.50985
LeftHand  -0.839876 -1.53273 -3.50855
RightShoulder  -4.77083e-015 -6.36111e-015 -3.18055e-015
RightArm  2.56601 21.5962 -36.6566
RightForeArm  -21.1902 16.0714 -24.924
RightHand  5.28435 -5.97436 -22.3518
LeftUpLeg  8.5014 13.0473 53.6321
LeftLeg  -15.2038 -24.97 1.54796
LeftFoot  9.87829 16.1029 -39.796
LeftToes  9.54166e-015 -1.91609e-011 -2.3878e-011
510
root  -21.1219 29.9187 0.493131 110.598 87.4871 85.8669
RightUpLeg  -54.6324 28.6923 -32.9911
RightLeg  -46.0803 -0.195282 -14.0778
RightFoot  1.89595 -2.25597 3.7128
RightToes  -1.27222e-014 -6.36111e-015 6.36111e-015
Spine  10.5458 -14.3719 6.3553
Spine1  -3.90196 -14.9178 37.814
HEad  5.23433 -26.4513 -26.8315
LeftShoulder1  6.36111e-015 -1.33558e-015 6.49777e-015
LeftArm  -28.5961 -70.8797 6.20327
LeftForeArm  -27.066 -42.3619 13.5634
LeftHand  -1.56684 -3.35272 -5.04147
RightShoulder  -4.77083e-015 -6.36111e-015 -3.18055e-015
RightArm  5.95593 23.3661 -34.144
RightForeArm  -12.7949 15.1138 -19.4923
RightHand  5.72094 -6.00291 -24.4468
LeftUpLeg  8.96633 10.4957 55.0072
LeftLeg  -16.2262 -25.0503 1.86696
LeftFoot  7.50639 16.3942 -42.8234
LeftToes  9.54166e-015 -1.91609e-011 -2.3878e-011
511
root  -21.1888 28.812 1.41476 163.797 86.9896 140.08
RightUpLeg  -55.6007 24.4297 -30.2273
RightLeg  -36.4003 4.57327 -13.5396
RightFoot  -2.83289 -0.206787 2.18985
RightToes  -1.27222e-014 -6.36111e-015 6.36111e-015
Spine  12.5585 -11.9937 10.7223
Spine1  -3.32047 -12.6585 29.3648
HEad  3.82409 -28.2581 -29.5844
LeftShoulder1  6.36111e-015 -1.33558e-015 6.49777e-015
LeftArm  -32.179 -59.0071 6.13319
LeftForeArm  -36.4693 -45.3679 20.125
LeftHand  -1.60886 -3.45001 -5.21915
RightShoulder  -4.77083e-015 -6.36111e-015 -3.18055e-015
RightArm  11.7005 34.0367 -29.3622
RightForeArm  -3.65943 9.24384 -11.5617
RightHand  5.97642 -6.00321 -25.6887
LeftUpLeg  8.28202 6.1169 55.6781
LeftLeg  -17.7321 -21.814 1.65005
LeftFoot  5.16596 16.4929 -45.6293
LeftToes  9.54166e-015 -1.91609e-011 -2.3878e-011
512
root  -21.1779 28.2864 1.8559 177.006 85.8599 151.643
RightUpLeg  -57.97 22.3799 -29.9181
RightLeg  -33.2869 5.40214 -12.6758
RightFoot  -4.72243 0.757545 1.06333
RightToes  -1.27222e-014 -6.36111e-015 6.36111e-015
Spine  14.4869 -10.6013 11.8546
Spine1  -3.84131 -10.8488 26.0048
HEad  1.58812 -26.8987 -32.8239
LeftShoulder1  6.36111e-015 -1.33558e-015 6.49777e-015
LeftArm  -34.3081 -42.1804 4.06047
LeftForeArm  -45.4523 -45.8067 24.818
LeftHand  -1.02358 -1.93687 -4.1259
RightShoulder  -4.77083e-015 -6.36111e-015 -3.18055e-015
RightArm  10.954 42.4551 -27.0151
RightForeArm  5.82588 6.86878 -0.459982
RightHand  6.91675 -6.93139 -28.27
LeftUpLeg  6.14586 4.53842 55.6199
LeftLeg  -18.5558 -19.8832 1.42279
LeftFoot  5.27495 17.1249 -47.0865
LeftToes  9.54166e-015 -1.91609e-011 -2.3878e-011
513
root  -21.096 28.0708 2.02125 -179.478 83.3098 153.348
RightUpLeg  -59.1482 21.8595 -31.5169
RightLeg  -32.2328 3.91577 -11.5039
RightFoot  -5.36194 0.519869 2.10542
RightToes  -1.27222e-014 -6.36111e-015 6.36111e-015
Spine  15.3968 -10.2365 11.147
Spine1  -3.53145 -10.0792 26.5516
HEad  -0.712485 -23.8841 -34.0306
LeftShoulder1  6.36111e-015 -1.33558e-015 6.49777e-015
LeftArm  -36.4525 -24.717 2.28411
LeftForeArm  -50.9255 -43.6173 24.0727
LeftHand  -0.0959517 0.263376 -2.29925
RightShoulder  -4.77083e-015 -6.36111e-015 -3.18055e-015
RightArm  -4.42226 36.1781 -33.3586
RightForeArm  19.2008 12.4768 11.0381
RightHand  9.46802 -8.91062 -35.1619
LeftUpLeg  2.68591 6.45045 54.9212
LeftLeg  -18.392 -21.8154 1.80777
LeftFoot  6.99537 17.5748 -46.2113
LeftToes  9.54166e-015 -1.91609e-011 -2.3878e-011
514
root  -21.0119 27.9722 1.88074 -173.563 80.0653 158.57
RightUpLeg  -58.0684 21.3809 -32.6194
RightLeg  -30.8671 2.01803 -10.0966
RightFoot  -5.66546 -0.0119532 3.69147
RightToes  -1.27222e-014 -6.36111e-015 6.36111e-015
Spine  19.1792 -11.4856 11.0473
Spine1  -9.17305 -11.4882 25.289
HEad  0.247065 -20.057 -31.0275
LeftShoulder1  6.36111e-015 -1.33558e-015 6.49777e-015
LeftArm  -33.3889 -11.7626 0.849489
LeftForeArm  -52.2609 -40.7767 20.0324
LeftHand  0.942064 2.45932 -0.164656
RightShoulder  -4.77083e-015 -6.36111e-015 -3.18055e-015
RightArm  -5.73823 30.4105 -34.2123
RightForeArm  20.4925 11.4418 10.7271
RightHand  12.6266 -10.479 -43.6332
LeftUpLeg  -0.876126 8.1753 53.8534
LeftLeg  -17.3683 -24.6807 2.13369
LeftFoot  7.50734 17.3395 -45.0859
LeftToes  9.54166e-015 -1.91609e-011 -2.3878e-011
515
root  -21.019 28.0831 1.3306 -167.914 77.4819 163.926
RightUpLeg  -56.0974 20.9788 -33.1723
RightLeg  -31.3729 0.269314 -9.42851
RightFoot  -4.69718 -0.783978 4.92226
RightToes  -1.27222e-014 -6.36111e-015 6.36111e-015
Spine  18.9392 -11.2314 10.0064
Spine1  -8.01127 -11.0112 26.2237
HEad  -1.35885 -17.4317 -27.4932
LeftShoulder1  6.36111e-015 -1.33558e-015 6.49777e-015
LeftArm  -30.3675 -2.41022 -0.168066
LeftForeArm  -49.7916 -38.8607 16.5958
LeftHand  1.65378 3.89369 1.09208
RightShoulder  -4.77083e-015 -6.36111e-015 -3.18055e-015
RightArm  -3.22877 31.8727 -38.815
RightForeArm  16.2226 8.16833 8.87115
RightHand  13.5317 -10.9011 -45.8206
LeftUpLeg  -3.74089 7.86169 52.4479
LeftLeg  -15.7855 -25.6896 1.84461
LeftFoot  5.99481 16.9116 -45.7267
LeftToes  9.54166e-015 -1.91609e-011 -2.3878e-011
